<?xml version="1.0" encoding="UTF-8"?>
<svg width="316px" height="266px" viewBox="0 0 316 266" version="1.1" xmlns="http://www.w3.org/2000/svg" xmlns:xlink="http://www.w3.org/1999/xlink">
    <!-- Generator: Sketch 61 (89581) - https://sketch.com -->
    <title>20</title>
    <desc>Created with Sketch.</desc>
    <g id="Page-1" stroke="none" stroke-width="1" fill="none" fill-rule="evenodd">
        <g id="20" transform="translate(5.650000, 1.250650)" fill-rule="nonzero" stroke="#000000" stroke-width="2">
            <path d="M158.699129,263.5 L0.605501762,263.5 L0.605501762,256.226025 L92.6059764,150.597286 L94.1900632,148.738616 C108.318502,132.074276 118.981141,117.129748 126.132331,103.911795 L126.526006,103.17924 C134.071413,89.2774567 137.928131,76.3509386 137.928131,64.4353798 C137.928131,44.2677964 132.029212,28.3710386 120.000706,17.0357275 C107.990096,5.59224128 91.189162,0 69.8832551,0 C56.8972806,0 45.0139356,3.1104894 34.2749791,9.34883784 C23.7571328,15.4589088 15.4422758,23.8979086 9.35003489,34.6319106 L8.96818702,35.3127335 C3.26215317,45.7097655 0.281374382,57.2375646 5.68434189e-14,69.8589456" id="Path"></path>
            <path d="M232.002129,0.81363 C208.638129,0.81363 190.47846,10.1929126 177.759875,28.9033121 L177.374129,29.47575 C164.970996,48.128751 158.825181,74.1358398 158.701048,107.27321 L158.699129,156.94435 C158.699129,189.97035 165.038129,216.07535 177.947129,235.04135 C190.925129,254.10735 209.139129,263.68535 232.377129,263.68535 C255.736129,263.68535 273.897129,254.10835 286.629129,235.02635 C299.285129,216.05735 305.493129,189.64435 305.493129,156.01235 L305.493129,107.36835 C305.493129,74.22465 299.219129,48.11805 286.434129,29.27385 C273.697129,10.31715 255.473129,0.81363 232.002129,0.81363 Z" id="Path"></path>
        </g>
    </g>
</svg>